<svg width="575" height="389" viewBox="0 0 575 389" fill="none" xmlns="http://www.w3.org/2000/svg">
<g clip-path="url(#clip0_1618_2416)">
<path d="M0 0H575V385C575 387.209 573.209 389 571 389H4C1.79086 389 0 387.209 0 385V0Z" fill="#333333"/>
<rect x="94" y="1" width="388" height="388" rx="32.407" fill="#333333"/>
<path d="M282.479 126.327C287.146 123.942 292.678 123.962 297.328 126.38L431.366 196.082C442.917 202.089 443.026 218.577 431.554 224.734L297.514 296.686C292.765 299.235 287.058 299.256 282.29 296.741L145.9 224.79C134.292 218.666 134.4 202.003 146.087 196.03L282.479 126.327Z" fill="#2F80ED"/>
<g style="mix-blend-mode:saturation">
<path d="M275.749 119.609C280.275 117.23 285.659 117.127 290.273 119.332L439.36 190.556C441.708 191.679 441.78 194.996 439.482 196.219L300.341 271.907C295.543 274.517 289.754 274.534 284.94 271.953L143.584 196.143C140.694 194.726 140.636 190.627 143.485 189.129L275.749 119.609Z" fill="#F2F2F2"/>
</g>
<path d="M263.683 103.517C264.705 105.507 267.147 106.292 269.137 105.27L284.16 97.5561C287.671 95.7529 291.84 95.7677 295.339 97.5958L310.102 105.31C312.085 106.346 314.532 105.578 315.568 103.595L337.914 115.271C336.878 117.254 337.645 119.701 339.628 120.737L369.154 136.165C371.137 137.201 373.584 136.433 374.62 134.45L396.966 146.126C395.93 148.109 396.698 150.556 398.68 151.592L413.444 159.306C415.566 160.415 417.14 161.963 418.21 163.725C419.282 165.487 421.484 166.142 423.32 165.321C424.231 168.343 424.252 171.595 423.381 174.629C421.535 173.833 419.341 174.516 418.293 176.293C417.245 178.068 415.692 179.637 413.585 180.773L398.821 188.736C396.852 189.798 396.117 192.255 397.179 194.224L374.783 206.304C373.721 204.335 371.264 203.599 369.295 204.661L339.768 220.587C337.799 221.649 337.064 224.106 338.126 226.075L315.73 238.155C314.668 236.186 312.211 235.45 310.241 236.512L295.478 244.475C291.905 246.403 287.605 246.418 284.018 244.517L268.995 236.554C267.019 235.506 264.567 236.259 263.519 238.236L240.633 226.105C241.681 224.128 240.928 221.677 238.951 220.629L208.907 204.703C206.93 203.656 204.478 204.409 203.431 206.385L180.545 194.254C181.593 192.278 180.839 189.826 178.863 188.778L163.841 180.816C161.708 179.685 160.136 178.114 159.077 176.333C158.022 174.56 155.826 173.884 153.983 174.687C153.09 171.619 153.112 168.324 154.044 165.267C155.877 166.094 158.081 165.447 159.159 163.688C160.242 161.92 161.833 160.37 163.981 159.267L179.003 151.554C180.993 150.532 181.778 148.09 180.756 146.1L203.594 134.373C204.616 136.363 207.058 137.148 209.048 136.126L239.093 120.698C241.083 119.676 241.868 117.234 240.846 115.244L263.683 103.517Z" stroke="white" stroke-width="8.10174" stroke-linecap="round" stroke-dasharray="32.41 32.41"/>
</g>
<defs>
<clipPath id="clip0_1618_2416">
<rect width="575" height="389" fill="white"/>
</clipPath>
</defs>
</svg>
